<svg  version="1.1" xmlns="http://www.w3.org/2000/svg">
  <symbol id="help" viewBox="0 0 1024 1024">
    <path d="M512 0C229.2 0 0 229.2 0 512s229.2 512 512 512 512-229.2 512-512S794.8 0 512 0z m311.1 823.1c-40.4 40.4-87.5 72.2-139.9 94.3C629 940.4 571.4 952 512 952c-59.4 0-117-11.6-171.2-34.5-52.4-22.2-99.4-53.9-139.9-94.3-40.4-40.4-72.2-87.5-94.3-139.9C83.6 629 72 571.4 72 512c0-59.4 11.6-117 34.5-171.2 22.2-52.4 53.9-99.4 94.3-139.9 40.4-40.4 87.5-72.2 139.9-94.3C395 83.6 452.6 72 512 72c59.4 0 117 11.6 171.2 34.5 52.4 22.2 99.4 53.9 139.9 94.3 40.4 40.4 72.2 87.5 94.3 139.9C940.4 395 952 452.6 952 512c0 59.4-11.6 117-34.5 171.2-22.2 52.4-53.9 99.5-94.4 139.9z" p-id="9286"></path><path d="M506.8 663.9c-1.2 0-2.4-0.1-3.6-0.2-19.8-1.9-34.2-19.6-32.3-39.4 4.9-49.9 41.5-90.2 81.8-130.5 64.5-64.5 65.6-85 66.7-106.7 1.3-25.3-8-49.8-26.4-69.1-20.9-22-50.5-34.6-81.2-34.6h-0.2c-59.1 0.1-107.3 48.3-107.3 107.5 0 19.9-16.1 36-36 36s-36-16.1-36-36c0-47.9 18.6-92.9 52.4-126.8 33.8-33.9 78.8-52.6 126.7-52.7 50.5-0.1 99.3 20.7 133.8 57 32.1 33.8 48.5 77.3 46.1 122.5-2.5 46.3-16.7 82.8-87.7 153.8-36 36-58.7 63-61 86.7-1.8 18.6-17.5 32.5-35.8 32.5zM462.2 769.2a43.3 43.3 0 1 0 86.6 0c0-23.914-19.386-43.3-43.3-43.3-23.914 0-43.3 19.386-43.3 43.3z" p-id="9287"></path>
  </symbol>
  <symbol id="plus" viewBox="0 0 1024 1024">
    <path d="M456.640352 84.420905c-15.349256 15.349256-22.921555 35.507944-22.716898 55.564305h-0.613971v294.194065H141.366643c-20.670331-0.61397-41.545318 6.856001-57.303887 22.614569-30.391526 30.391526-30.391526 79.611472 0 110.002998 15.656241 15.656241 36.326571 23.126212 56.792245 22.61457v1.432597h291.226542v293.477766h0.61397c-0.102328 20.056361 7.367643 40.215049 22.716898 55.564305 30.391526 30.391526 79.611472 30.391526 110.002998 0 15.349256-15.349256 22.921555-35.507944 22.716898-55.564305h0.613971V589.104427h293.887079c20.670331 0.61397 41.545318-6.856001 57.303887-22.61457 30.391526-30.391526 30.391526-79.611472 0-110.002998-15.656241-15.656241-36.326571-23.126212-56.792245-22.61457v-1.432597H589.974218V139.98521h-0.511642c0.102328-20.056361-7.367643-40.215049-22.716898-55.564305-30.391526-30.391526-79.7138-30.391526-110.105326 0z" p-id="8606"></path>
  </symbol>
</svg>