<svg  version="1.1" xmlns="http://www.w3.org/2000/svg">
  <symbol id="help" viewBox="0 0 1024 1024">
    <path d="M926.542848 338.077696c-23.538688-54.59456-55.63904-102.386688-96.299008-143.321088-40.65792-40.961024-88.34048-73.19552-142.992384-96.681984C632.6016 74.592256 574.439424 62.850048 512.8192 62.850048c-62.276608 0-120.768512 11.741184-175.420416 35.224576-54.649856 23.486464-102.33344 55.72096-143.045632 96.681984-40.658944 40.9344-72.758272 88.725504-96.242688 143.321088C74.570752 392.674304 62.828544 450.75456 62.828544 512.347136c0 62.222336 11.742208 120.631296 35.28192 175.227904 23.48544 54.595584 55.583744 102.222848 96.242688 142.855168 40.713216 40.631296 88.395776 72.701952 143.045632 96.187392 54.65088 23.483392 113.088512 35.226624 175.420416 35.226624 61.620224 0 119.7824-11.743232 174.43328-35.226624 54.651904-23.48544 102.334464-55.556096 142.992384-96.187392 40.659968-40.63232 72.76032-88.259584 96.299008-142.855168 23.53664-54.595584 35.280896-113.004544 35.280896-175.227904C961.823744 450.753536 950.080512 392.674304 926.542848 338.077696zM831.970304 647.56736c-18.164736 42.130432-42.935296 78.88384-74.31168 110.23872-31.37536 31.353856-68.170752 56.102912-110.345216 74.225664-42.17344 18.121728-87.05536 27.184128-134.606848 27.184128-48.100352 0-93.195264-9.063424-135.36768-27.184128-42.172416-18.122752-78.968832-42.871808-110.386176-74.225664-31.37536-31.35488-56.14592-68.108288-74.268672-110.23872-18.16576-42.131456-27.226112-87.20384-27.226112-135.220224 0-47.52896 9.061376-92.34944 27.226112-134.479872 18.122752-42.131456 42.893312-79.010816 74.268672-110.599168 31.417344-31.607808 68.21376-56.48384 110.386176-74.606592 42.17344-18.122752 87.310336-27.183104 135.36768-27.183104 47.552512 0 92.434432 9.061376 134.606848 27.183104 42.174464 18.122752 78.969856 42.998784 110.345216 74.606592 31.377408 31.588352 56.146944 68.467712 74.31168 110.599168 18.162688 42.131456 27.226112 86.949888 27.226112 134.479872C859.196416 560.362496 850.132992 605.436928 831.970304 647.56736z" p-id="3636"></path><path d="M520.465408 675.245056c-13.827072 0-25.350144 4.497408-34.624512 13.467648-9.273344 8.999936-13.935616 20.164608-13.935616 33.524736 0 12.896256 4.663296 23.842816 13.935616 32.840704 9.274368 8.97024 20.79744 13.469696 34.624512 13.469696 13.279232 0 24.63744-4.50048 33.855488-13.469696 9.274368-8.997888 13.937664-19.946496 13.937664-32.840704 0-13.360128-4.665344-24.5248-13.937664-33.524736C545.101824 679.74144 533.74464 675.245056 520.465408 675.245056z" p-id="3637"></path><path d="M614.623232 337.268736c-12.837888-13.361152-29.355008-24.41728-49.54624-33.196032-20.248576-8.72448-44.61056-13.114368-73.198592-13.114368-33.3056 0-59.807744 5.65248-79.560704 16.927744-19.753984 11.303936-34.733056 25.020416-44.939264 41.124864-10.261504 16.132096-16.900096 32.838656-20.028416 50.097152-3.072 17.31072-4.609024 31.934464-4.609024 43.895808 0 11.056128 4.772864 18.90304 14.266368 23.512064 9.49248 4.609024 19.861504 6.555648 31.056896 5.869568 11.193344-0.685056 21.50912-3.922944 31.055872-9.683968 9.493504-5.761024 14.266368-13.469696 14.266368-23.128064 0-6.006784 0.329728-12.701696 1.042432-20.05504 0.713728-7.379968 3.129344-14.401536 7.134208-21.069824 4.06016-6.692864 10.150912-12.234752 18.21696-16.598016 8.066048-4.388864 19.259392-6.555648 33.524736-6.555648 22.388736 0 40.111104 5.981184 53.1712 17.941504 13.114368 11.988992 19.644416 26.063872 19.644416 42.169344 0 13.360128-4.665344 26.25536-13.883392 38.711296-9.326592 12.428288-19.42528 23.839744-30.345216 34.209792-10.974208 10.372096-21.0688 19.590144-30.343168 27.656192-9.27232 8.066048-13.935616 14.40256-13.935616 18.985984l0 50.479104c0 4.144128 4.66432 7.242752 13.935616 9.299968 9.274368 2.085888 19.36896 3.017728 30.343168 2.772992 10.919936-0.22016 21.016576-1.480704 30.345216-3.786752 9.218048-2.305024 13.883392-6.008832 13.883392-11.056128l0-22.115328-0.001024 0c0-6.006784 4.44416-13.142016 13.222912-21.4272 8.778752-8.312832 18.545664-18.54464 29.246464-30.754816 10.698752-12.234752 20.579328-26.502144 29.631488-42.853376 8.998912-16.351232 13.55264-35.6096 13.55264-57.723904 0-14.732288-2.965504-30.178304-8.943616-46.3104C636.900352 365.3632 627.519488 350.629888 614.623232 337.268736z" p-id="3638"></path>
  </symbol>
  <symbol id="plus" viewBox="0 0 1024 1024">
    <path d="M512 1024c-25.6 0-44.8-6.4-64-25.6-19.2-19.2-25.6-38.4-25.6-64L422.4 601.6 89.6 601.6C64 601.6 44.8 595.2 25.6 576 6.4 556.8 0 537.6 0 512s6.4-44.8 25.6-64c19.2-19.2 38.4-25.6 64-25.6l332.8 0L422.4 89.6c0-25.6 6.4-44.8 25.6-64C467.2 6.4 486.4 0 512 0c25.6 0 44.8 6.4 64 25.6 19.2 19.2 25.6 38.4 25.6 64l0 332.8 332.8 0c25.6 0 44.8 6.4 64 25.6C1017.6 467.2 1024 486.4 1024 512s-6.4 44.8-25.6 64c-19.2 19.2-38.4 25.6-64 25.6L601.6 601.6l0 332.8c0 25.6-6.4 44.8-25.6 64C556.8 1017.6 537.6 1024 512 1024z" p-id="2426"></path>
  </symbol>
</svg>