<svg  version="1.1" xmlns="http://www.w3.org/2000/svg">
  <symbol id="help" viewBox="0 0 1024 1024">
    <path d="M512 0C229.2 0 0 229.2 0 512s229.2 512 512 512 512-229.2 512-512S794.8 0 512 0z m311.1 823.1c-40.4 40.4-87.5 72.2-139.9 94.3C629 940.4 571.4 952 512 952c-59.4 0-117-11.6-171.2-34.5-52.4-22.2-99.4-53.9-139.9-94.3-40.4-40.4-72.2-87.5-94.3-139.9C83.6 629 72 571.4 72 512c0-59.4 11.6-117 34.5-171.2 22.2-52.4 53.9-99.4 94.3-139.9 40.4-40.4 87.5-72.2 139.9-94.3C395 83.6 452.6 72 512 72c59.4 0 117 11.6 171.2 34.5 52.4 22.2 99.4 53.9 139.9 94.3 40.4 40.4 72.2 87.5 94.3 139.9C940.4 395 952 452.6 952 512c0 59.4-11.6 117-34.5 171.2-22.2 52.4-53.9 99.5-94.4 139.9z" p-id="9286"></path><path d="M506.8 663.9c-1.2 0-2.4-0.1-3.6-0.2-19.8-1.9-34.2-19.6-32.3-39.4 4.9-49.9 41.5-90.2 81.8-130.5 64.5-64.5 65.6-85 66.7-106.7 1.3-25.3-8-49.8-26.4-69.1-20.9-22-50.5-34.6-81.2-34.6h-0.2c-59.1 0.1-107.3 48.3-107.3 107.5 0 19.9-16.1 36-36 36s-36-16.1-36-36c0-47.9 18.6-92.9 52.4-126.8 33.8-33.9 78.8-52.6 126.7-52.7 50.5-0.1 99.3 20.7 133.8 57 32.1 33.8 48.5 77.3 46.1 122.5-2.5 46.3-16.7 82.8-87.7 153.8-36 36-58.7 63-61 86.7-1.8 18.6-17.5 32.5-35.8 32.5zM462.2 769.2a43.3 43.3 0 1 0 86.6 0c0-23.914-19.386-43.3-43.3-43.3-23.914 0-43.3 19.386-43.3 43.3z" p-id="9287"></path>
  </symbol>
  <symbol id="plus" viewBox="0 0 1024 1024">
    <path d="M456.640352 84.420905c-15.349256 15.349256-22.921555 35.507944-22.716898 55.564305h-0.613971v294.194065H141.366643c-20.670331-0.61397-41.545318 6.856001-57.303887 22.614569-30.391526 30.391526-30.391526 79.611472 0 110.002998 15.656241 15.656241 36.326571 23.126212 56.792245 22.61457v1.432597h291.226542v293.477766h0.61397c-0.102328 20.056361 7.367643 40.215049 22.716898 55.564305 30.391526 30.391526 79.611472 30.391526 110.002998 0 15.349256-15.349256 22.921555-35.507944 22.716898-55.564305h0.613971V589.104427h293.887079c20.670331 0.61397 41.545318-6.856001 57.303887-22.61457 30.391526-30.391526 30.391526-79.611472 0-110.002998-15.656241-15.656241-36.326571-23.126212-56.792245-22.61457v-1.432597H589.974218V139.98521h-0.511642c0.102328-20.056361-7.367643-40.215049-22.716898-55.564305-30.391526-30.391526-79.7138-30.391526-110.105326 0z" p-id="8606"></path>
  </symbol>
  <symbol id="more" viewBox="0 0 1024 1024">
    <path d="M433.938 495.285a91.452 91.452 0 1 0 187.166 0 91.452 91.452 0 1 0-187.166 0zM113.302 495.285a91.452 91.452 0 1 0 187.167 0 91.452 91.452 0 1 0-187.167 0zM752.868 495.286a91.452 91.452 0 1 0 187.167 0 91.452 91.452 0 1 0-187.167 0z" p-id="1860"></path>
  </symbol>
  <symbol id="trash" viewBox="0 0 1024 1024">
    <path d="M661.333333 213.333333V170.666667c0-23.466667-19.2-42.666667-42.666666-42.666667H405.333333c-23.466667 0-42.666667 19.2-42.666666 42.666667v42.666666H170.666667v42.666667h64v597.333333c0 23.466667 19.2 42.666667 42.666666 42.666667h469.333334c23.466667 0 42.666667-19.2 42.666666-42.666667V256h64v-42.666667h-192zM405.333333 170.666667h213.333334v42.666666H405.333333V170.666667z m341.333334 682.666666H277.333333V256h469.333334v597.333333z" p-id="1141"></path><path d="M618.666667 341.333333h42.666666v426.666667h-42.666666zM362.666667 341.333333h42.666666v426.666667h-42.666666zM490.666667 341.333333h42.666666v426.666667h-42.666666z" p-id="1142"></path>
  </symbol>
  <symbol id="add" viewBox="0 0 1024 1024">
    <path d="M536.139282 484.169141c132.202974 0 264.407995 0 397.165602 0 3.390213 0 6.224772 0.573051 9.613962 2.25946l0 0c2.816139 1.12973 5.64865 2.833535 8.463766 5.66707 5.094018 4.517897 7.354502 11.298324 7.354502 17.522072 0 6.797823-2.816139 13.576203-7.354502 18.096147l0 0.575098c-2.816139 2.258437-5.64865 3.943822-8.463766 5.073552l0 0c-3.38919 1.703805-6.223748 2.278903-9.613962 2.278903l0 0c-132.757606 0-264.962627 0-397.165602 0 0 132.338051 0 264.675078 0 397.588227 0 2.833535-0.574075 6.222725-2.25946 9.631358l0 0c-1.12973 2.815115-2.834558 5.649674-5.095042 8.482185l0 0c-5.072529 5.075599-11.851932 7.354502-18.074657 7.354502l0 0c-6.780427 0-13.557784-2.835581-18.076704-7.354502-2.825348-2.832512-4.519943-5.66707-5.64865-8.482185-1.694595-3.408633-2.25946-6.798846-2.25946-9.631358l0 0c0-132.913149 0-265.250176 0-397.588227-132.205021 0-264.407995 0-397.176858 0l0 0c-2.825348 0-6.213515-0.575098-9.603729-2.278903-2.823302-1.12973-5.64865-2.815115-8.472975-5.073552l0-0.575098 0 0c-4.519943-4.519943-7.344269-11.298324-7.344269-17.541515 0-6.77838 2.25946-13.557784 7.344269-18.075681l0 0c2.824325-2.833535 5.649674-4.538363 8.472975-5.66707 3.390213-1.686409 6.77838-2.25946 9.603729-2.25946l0 0c132.768863 0 264.971837 0 397.176858 0 0-132.357494 0-264.695544 0-397.60767l0 0c0-3.38919 0.564865-6.77838 2.25946-9.612938 1.128707-2.833535 2.823302-5.668093 5.64865-8.483208l0 0c4.51892-4.53734 11.296277-7.352455 18.076704-7.352455 6.222725 0 13.002129 2.815115 18.074657 7.352455 2.260483 2.815115 3.964288 5.649674 5.095042 8.483208 1.130753 1.12973 2.25946 7.928576 2.25946 9.612938C536.139282 86.561471 536.139282 451.346595 536.139282 484.169141L536.139282 484.169141z" p-id="2101"></path><
  </symbol>
</svg>